<svg width="182" height="30" viewBox="0 0 182 30" fill="none" xmlns="http://www.w3.org/2000/svg">
<path d="M14.88 29.4C12.88 29.4 11 29.04 9.24 28.32C7.50667 27.5733 5.97333 26.5333 4.64 25.2C3.33333 23.8667 2.30667 22.3333 1.56 20.6C0.84 18.84 0.48 16.9467 0.48 14.92C0.48 12.8667 0.853333 10.9733 1.6 9.24C2.34667 7.48 3.38667 5.94667 4.72 4.64C6.05333 3.30667 7.61333 2.28 9.4 1.56C11.1867 0.813331 13.12 0.439998 15.2 0.439998C17.52 0.439998 19.6533 0.879998 21.6 1.76C23.5467 2.61333 25.16 3.82666 26.44 5.4L22.76 9.08C21.88 7.93333 20.7867 7.05333 19.48 6.44C18.1733 5.82667 16.7333 5.52 15.16 5.52C13.3733 5.52 11.7867 5.92 10.4 6.72C9.04 7.49333 7.97333 8.58667 7.2 10C6.42667 11.3867 6.04 13.0133 6.04 14.88C6.04 16.7467 6.41333 18.4 7.16 19.84C7.93333 21.2533 8.97333 22.36 10.28 23.16C11.6133 23.96 13.1333 24.36 14.84 24.36C16.6 24.36 18.1067 24.04 19.36 23.4C20.6133 22.7333 21.5733 21.7733 22.24 20.52C22.9067 19.24 23.24 17.68 23.24 15.84L26.8 18.28L14.52 18.16V13.44H28.84V14.2C28.84 17.56 28.24 20.3733 27.04 22.64C25.84 24.88 24.1867 26.5733 22.08 27.72C20 28.84 17.6 29.4 14.88 29.4ZM41.6928 29.4C39.6661 29.4 37.8661 28.9733 36.2928 28.12C34.7195 27.24 33.4661 26.04 32.5328 24.52C31.6261 23 31.1728 21.2667 31.1728 19.32C31.1728 17.4 31.6128 15.6933 32.4928 14.2C33.3995 12.68 34.6261 11.48 36.1728 10.6C37.7195 9.69333 39.4395 9.24 41.3328 9.24C43.1995 9.24 44.8395 9.66667 46.2528 10.52C47.6928 11.3467 48.8128 12.4933 49.6128 13.96C50.4395 15.4 50.8528 17.04 50.8528 18.88C50.8528 19.2267 50.8261 19.5867 50.7728 19.96C50.7461 20.3067 50.6795 20.7067 50.5728 21.16L34.3328 21.2V17.28L48.1328 17.24L46.0128 18.88C45.9595 17.7333 45.7461 16.7733 45.3728 16C45.0261 15.2267 44.5061 14.64 43.8128 14.24C43.1461 13.8133 42.3195 13.6 41.3328 13.6C40.2928 13.6 39.3861 13.84 38.6128 14.32C37.8395 14.7733 37.2395 15.4267 36.8128 16.28C36.4128 17.1067 36.2128 18.0933 36.2128 19.24C36.2128 20.4133 36.4261 21.44 36.8528 22.32C37.3061 23.1733 37.9461 23.84 38.7728 24.32C39.5995 24.7733 40.5595 25 41.6528 25C42.6395 25 43.5328 24.84 44.3328 24.52C45.1328 24.1733 45.8261 23.6667 46.4128 23L49.4928 26.08C48.5595 27.1733 47.4128 28 46.0528 28.56C44.7195 29.12 43.2661 29.4 41.6928 29.4ZM63.1734 29.4C61.2268 29.4 59.4668 28.96 57.8934 28.08C56.3468 27.1733 55.1068 25.96 54.1734 24.44C53.2668 22.8933 52.8134 21.1733 52.8134 19.28C52.8134 17.3867 53.2668 15.6933 54.1734 14.2C55.0801 12.68 56.3201 11.48 57.8934 10.6C59.4668 9.69333 61.2134 9.24 63.1334 9.24C65.1068 9.24 66.8668 9.69333 68.4134 10.6C69.9868 11.48 71.2268 12.68 72.1334 14.2C73.0401 15.6933 73.4934 17.3867 73.4934 19.28C73.4934 21.1733 73.0401 22.8933 72.1334 24.44C71.2268 25.96 69.9868 27.1733 68.4134 28.08C66.8668 28.96 65.1201 29.4 63.1734 29.4ZM63.1334 24.52C64.1201 24.52 64.9868 24.3067 65.7334 23.88C66.5068 23.4267 67.0934 22.8133 67.4934 22.04C67.9201 21.24 68.1334 20.3333 68.1334 19.32C68.1334 18.3067 67.9201 17.4133 67.4934 16.64C67.0668 15.8667 66.4801 15.2667 65.7334 14.84C64.9868 14.3867 64.1201 14.16 63.1334 14.16C62.1734 14.16 61.3201 14.3867 60.5734 14.84C59.8268 15.2667 59.2401 15.8667 58.8134 16.64C58.3868 17.4133 58.1734 18.3067 58.1734 19.32C58.1734 20.3333 58.3868 21.24 58.8134 22.04C59.2401 22.8133 59.8268 23.4267 60.5734 23.88C61.3201 24.3067 62.1734 24.52 63.1334 24.52ZM75.3469 29L86.6669 0.88H91.1069L102.387 29H96.5869L87.8669 5.92H89.8669L81.0269 29H75.3469ZM81.3469 23.76V19.2H96.4669V23.76H81.3469ZM112.101 29.44C111.007 29.44 109.927 29.2933 108.861 29C107.821 28.7067 106.861 28.3067 105.981 27.8C105.101 27.2667 104.341 26.6267 103.701 25.88L106.821 22.72C107.487 23.4667 108.261 24.0267 109.141 24.4C110.021 24.7733 110.994 24.96 112.061 24.96C112.914 24.96 113.554 24.84 113.981 24.6C114.434 24.36 114.661 24 114.661 23.52C114.661 22.9867 114.421 22.5733 113.941 22.28C113.487 21.9867 112.887 21.7467 112.141 21.56C111.394 21.3467 110.607 21.12 109.781 20.88C108.981 20.6133 108.207 20.28 107.461 19.88C106.714 19.4533 106.101 18.88 105.621 18.16C105.167 17.4133 104.941 16.4533 104.941 15.28C104.941 14.0533 105.234 12.9867 105.821 12.08C106.434 11.1733 107.301 10.4667 108.421 9.96C109.541 9.45333 110.861 9.2 112.381 9.2C113.981 9.2 115.421 9.48 116.701 10.04C118.007 10.6 119.087 11.44 119.941 12.56L116.781 15.72C116.194 15 115.527 14.48 114.781 14.16C114.061 13.84 113.274 13.68 112.421 13.68C111.647 13.68 111.047 13.8 110.621 14.04C110.221 14.28 110.021 14.6133 110.021 15.04C110.021 15.52 110.247 15.8933 110.701 16.16C111.181 16.4267 111.794 16.6667 112.541 16.88C113.287 17.0667 114.061 17.2933 114.861 17.56C115.687 17.8 116.461 18.1467 117.181 18.6C117.927 19.0533 118.527 19.6533 118.981 20.4C119.461 21.1467 119.701 22.1067 119.701 23.28C119.701 25.1733 119.021 26.68 117.661 27.8C116.301 28.8933 114.447 29.44 112.101 29.44ZM129.874 29.44C128.781 29.44 127.701 29.2933 126.634 29C125.594 28.7067 124.634 28.3067 123.754 27.8C122.874 27.2667 122.114 26.6267 121.474 25.88L124.594 22.72C125.261 23.4667 126.034 24.0267 126.914 24.4C127.794 24.7733 128.767 24.96 129.834 24.96C130.687 24.96 131.327 24.84 131.754 24.6C132.207 24.36 132.434 24 132.434 23.52C132.434 22.9867 132.194 22.5733 131.714 22.28C131.261 21.9867 130.661 21.7467 129.914 21.56C129.167 21.3467 128.381 21.12 127.554 20.88C126.754 20.6133 125.981 20.28 125.234 19.88C124.487 19.4533 123.874 18.88 123.394 18.16C122.941 17.4133 122.714 16.4533 122.714 15.28C122.714 14.0533 123.007 12.9867 123.594 12.08C124.207 11.1733 125.074 10.4667 126.194 9.96C127.314 9.45333 128.634 9.2 130.154 9.2C131.754 9.2 133.194 9.48 134.474 10.04C135.781 10.6 136.861 11.44 137.714 12.56L134.554 15.72C133.967 15 133.301 14.48 132.554 14.16C131.834 13.84 131.047 13.68 130.194 13.68C129.421 13.68 128.821 13.8 128.394 14.04C127.994 14.28 127.794 14.6133 127.794 15.04C127.794 15.52 128.021 15.8933 128.474 16.16C128.954 16.4267 129.567 16.6667 130.314 16.88C131.061 17.0667 131.834 17.2933 132.634 17.56C133.461 17.8 134.234 18.1467 134.954 18.6C135.701 19.0533 136.301 19.6533 136.754 20.4C137.234 21.1467 137.474 22.1067 137.474 23.28C137.474 25.1733 136.794 26.68 135.434 27.8C134.074 28.8933 132.221 29.44 129.874 29.44ZM141.008 29V9.68H146.288V29H141.008ZM143.648 6.56C142.794 6.56 142.088 6.28 141.528 5.72C140.968 5.13333 140.688 4.41333 140.688 3.56C140.688 2.73333 140.968 2.02667 141.528 1.44C142.088 0.853333 142.794 0.559999 143.648 0.559999C144.528 0.559999 145.234 0.853333 145.768 1.44C146.328 2.02667 146.608 2.73333 146.608 3.56C146.608 4.41333 146.328 5.13333 145.768 5.72C145.234 6.28 144.528 6.56 143.648 6.56ZM157.569 29.44C156.476 29.44 155.396 29.2933 154.329 29C153.289 28.7067 152.329 28.3067 151.449 27.8C150.569 27.2667 149.809 26.6267 149.169 25.88L152.289 22.72C152.956 23.4667 153.729 24.0267 154.609 24.4C155.489 24.7733 156.463 24.96 157.529 24.96C158.383 24.96 159.023 24.84 159.449 24.6C159.903 24.36 160.129 24 160.129 23.52C160.129 22.9867 159.889 22.5733 159.409 22.28C158.956 21.9867 158.356 21.7467 157.609 21.56C156.863 21.3467 156.076 21.12 155.249 20.88C154.449 20.6133 153.676 20.28 152.929 19.88C152.183 19.4533 151.569 18.88 151.089 18.16C150.636 17.4133 150.409 16.4533 150.409 15.28C150.409 14.0533 150.703 12.9867 151.289 12.08C151.903 11.1733 152.769 10.4667 153.889 9.96C155.009 9.45333 156.329 9.2 157.849 9.2C159.449 9.2 160.889 9.48 162.169 10.04C163.476 10.6 164.556 11.44 165.409 12.56L162.249 15.72C161.663 15 160.996 14.48 160.249 14.16C159.529 13.84 158.743 13.68 157.889 13.68C157.116 13.68 156.516 13.8 156.089 14.04C155.689 14.28 155.489 14.6133 155.489 15.04C155.489 15.52 155.716 15.8933 156.169 16.16C156.649 16.4267 157.263 16.6667 158.009 16.88C158.756 17.0667 159.529 17.2933 160.329 17.56C161.156 17.8 161.929 18.1467 162.649 18.6C163.396 19.0533 163.996 19.6533 164.449 20.4C164.929 21.1467 165.169 22.1067 165.169 23.28C165.169 25.1733 164.489 26.68 163.129 27.8C161.769 28.8933 159.916 29.44 157.569 29.44ZM171.543 29V1.64H176.783V29H171.543ZM167.023 14.28V9.68H181.303V14.28H167.023Z" fill="url(#paint0_linear_3_2)"/>
<defs>
<linearGradient id="paint0_linear_3_2" x1="-1" y1="14" x2="182" y2="14" gradientUnits="userSpaceOnUse">
<stop stop-color="#155DFC"/>
<stop offset="1" stop-color="#00A63E"/>
</linearGradient>
</defs>
</svg>
